# xmcd
#
# Track frame offsets:
#	150
#	23135
#	43615
#	67070
#	86152
#	103055
#	122350
#	142805
#	157780
#	168940
#	188835
#	209190
#
# Disc length: 3013 seconds
# Revision: 4
# Processed by: cddbd v1.5.2PL0 Copyright (c) Steve Scherf et al.
# Submitted via: dBpowerAMP V12.0
#
DISCID=a00bc30c
DTITLE=Canned Heat - Blues Band
DYEAR=1997
DGENRE=Pop/Rock
TTITLE0=Stranger
TTITLE1=Quiet Woman
TTITLE2=Iron Horse
TTITLE3=Jr.'s Shuffle
TTITLE4=Creole Queen
TTITLE5=Keep It to Yourself
TTITLE6=Boogie Music
TTITLE7=Going Up the Country
TTITLE8=See These Tears
TTITLE9=One Kind Favor
TTITLE10=Oh Baby
TTITLE11=Gorgo Boogie
EXTD=
EXTT0=
EXTT1=
EXTT2=
EXTT3=
EXTT4=
EXTT5=
EXTT6=
EXTT7=
EXTT8=
EXTT9=
EXTT10=
EXTT11=
PLAYORDER=
